<svg width="25" height="25" viewBox="0 0 16 16" fill="none" xmlns="http://www.w3.org/2000/svg">
    <g clip-path="url(#clip0_41_9)">
        <path
            d="M15 1.4981L10.9965 1.49812V0.501617C10.9965 0.225367 10.7727 0.00161743 10.4965 0.00161743C10.2203 0.00161743 9.9965 0.225367 9.9965 0.501617V1.49787H5.9965V0.501617C5.9965 0.225367 5.77275 0.00161743 5.4965 0.00161743C5.22025 0.00161743 4.9965 0.225367 4.9965 0.501617V1.49787H1C0.44775 1.49787 0 1.94562 0 2.49787V14.9979C0 15.5501 0.44775 15.9979 1 15.9979H15C15.5522 15.9979 16 15.5501 16 14.9979V2.49787C16 1.94585 15.5522 1.4981 15 1.4981ZM15 14.9979H1V2.49787H4.9965V3.00162C4.9965 3.27785 5.22025 3.50162 5.4965 3.50162C5.77275 3.50162 5.9965 3.27785 5.9965 3.00162V2.49812H9.9965V3.00187C9.9965 3.27812 10.2203 3.50187 10.4965 3.50187C10.7727 3.50187 10.9965 3.27812 10.9965 3.00187V2.49812H15V14.9979ZM11.5 7.9981H12.5C12.776 7.9981 13 7.7741 13 7.4981V6.4981C13 6.2221 12.776 5.9981 12.5 5.9981H11.5C11.224 5.9981 11 6.2221 11 6.4981V7.4981C11 7.7741 11.224 7.9981 11.5 7.9981ZM11.5 11.9979H12.5C12.776 11.9979 13 11.7741 13 11.4979V10.4979C13 10.2219 12.776 9.99785 12.5 9.99785H11.5C11.224 9.99785 11 10.2219 11 10.4979V11.4979C11 11.7744 11.224 11.9979 11.5 11.9979ZM8.5 9.99785H7.5C7.224 9.99785 7 10.2219 7 10.4979V11.4979C7 11.7741 7.224 11.9979 7.5 11.9979H8.5C8.776 11.9979 9 11.7741 9 11.4979V10.4979C9 10.2221 8.776 9.99785 8.5 9.99785ZM8.5 5.9981H7.5C7.224 5.9981 7 6.2221 7 6.4981V7.4981C7 7.7741 7.224 7.9981 7.5 7.9981H8.5C8.776 7.9981 9 7.7741 9 7.4981V6.4981C9 6.22185 8.776 5.9981 8.5 5.9981ZM4.5 5.9981H3.5C3.224 5.9981 3 6.2221 3 6.4981V7.4981C3 7.7741 3.224 7.9981 3.5 7.9981H4.5C4.776 7.9981 5 7.7741 5 7.4981V6.4981C5 6.22185 4.776 5.9981 4.5 5.9981ZM4.5 9.99785H3.5C3.224 9.99785 3 10.2219 3 10.4979V11.4979C3 11.7741 3.224 11.9979 3.5 11.9979H4.5C4.776 11.9979 5 11.7741 5 11.4979V10.4979C5 10.2221 4.776 9.99785 4.5 9.99785Z"
            fill='hsl(57, 97%, 45%)' />
    </g>
    <defs>
        <clipPath id="clip0_41_9">
            <rect width="16" height="16" fill="white" />
        </clipPath>
    </defs>
</svg>