<svg width="13" height="13" viewBox="0 0 13 13" fill="none" xmlns="http://www.w3.org/2000/svg">
<path d="M6.50016 1.08325C3.521 1.08325 1.0835 3.52075 1.0835 6.49992C1.0835 9.47908 3.521 11.9166 6.50016 11.9166C9.47933 11.9166 11.9168 9.47908 11.9168 6.49992C11.9168 3.52075 9.47933 1.08325 6.50016 1.08325ZM6.50016 10.8333C4.11141 10.8333 2.16683 8.88867 2.16683 6.49992C2.16683 4.11117 4.11141 2.16659 6.50016 2.16659C8.88891 2.16659 10.8335 4.11117 10.8335 6.49992C10.8335 8.88867 8.88891 10.8333 6.50016 10.8333ZM6.771 3.79158H5.9585V7.04158L8.77516 8.77492L9.2085 8.07075L6.771 6.60825V3.79158Z" fill="hsl(57, 97%, 45%)"/>
</svg>
